<?xml version="1.0" standalone="no"?>
<!DOCTYPE svg PUBLIC "-//W3C//DTD SVG 20010904//EN"
 "http://www.w3.org/TR/2001/REC-SVG-20010904/DTD/svg10.dtd">
<svg version="1.0" xmlns="http://www.w3.org/2000/svg"
 width="700.000000pt" height="700.000000pt" viewBox="0 0 700.000000 700.000000"
 preserveAspectRatio="xMidYMid meet">
<metadata>
Created by potrace 1.14, written by Peter Selinger 2001-2017
</metadata>
<g transform="translate(0.000000,700.000000) scale(0.100000,-0.100000)"
fill="#000000" stroke="none">
<path d="M4140 5567 c-19 -6 -55 -32 -79 -57 -44 -44 -58 -78 -763 -1925 -396
-1034 -721 -1898 -724 -1920 -10 -65 12 -124 65 -176 67 -68 135 -83 224 -53
102 34 49 -89 840 1981 395 1033 721 1897 724 1919 8 65 -13 123 -66 175 -64
65 -136 83 -221 56z"/>
<path d="M4595 4591 c-150 -38 -217 -196 -139 -328 28 -49 -17 -19 644 -426
289 -178 525 -330 525 -337 0 -7 -247 -166 -550 -352 -302 -187 -563 -351
-578 -366 -45 -42 -67 -94 -67 -158 0 -88 41 -154 122 -195 47 -24 137 -25
181 -3 80 41 1176 721 1205 748 18 17 47 52 64 79 112 174 83 436 -64 573 -29
27 -1124 706 -1203 746 -39 20 -102 28 -140 19z"/>
<path d="M2245 4562 c-129 -73 -1163 -717 -1188 -740 -168 -160 -168 -484 0
-644 26 -25 1126 -708 1205 -749 56 -29 138 -26 199 7 69 38 102 92 107 174 5
82 -13 126 -70 175 -24 20 -284 185 -578 367 -294 181 -540 335 -547 341 -9 9
117 91 549 357 309 190 576 360 594 379 43 43 57 88 52 164 -10 160 -180 249
-323 169z"/>
</g>
</svg>
